<svg width="20" height="20" viewBox="0 0 20 20" fill="none" xmlns="http://www.w3.org/2000/svg">
<g id="Home">
<path id="Home_2" d="M7.13478 18.7733V15.7156C7.13478 14.9351 7.77217 14.3023 8.55844 14.3023H11.4326C11.8102 14.3023 12.1723 14.4512 12.4393 14.7163C12.7063 14.9813 12.8563 15.3408 12.8563 15.7156V18.7733C12.8539 19.0978 12.9821 19.4099 13.2124 19.6402C13.4427 19.8705 13.7561 20 14.0829 20H16.0438C16.9596 20.0023 17.8388 19.6428 18.4872 19.0008C19.1356 18.3588 19.5 17.487 19.5 16.5778V7.86686C19.5 7.13246 19.1721 6.43584 18.6046 5.96467L11.934 0.675869C10.7737 -0.251438 9.11111 -0.221498 7.98539 0.746979L1.46701 5.96467C0.872741 6.42195 0.517552 7.12064 0.5 7.86686V16.5689C0.5 18.4639 2.04738 20 3.95617 20H5.87229C6.55123 20 7.103 19.4562 7.10792 18.7822L7.13478 18.7733Z" fill="#9FA5C0"/>
</g>
</svg>
