<svg width="24" height="24" viewBox="0 0 24 24" fill="none" xmlns="http://www.w3.org/2000/svg">
<path d="M18.8265 10.5449H11.6739V13.6351H15.7901C15.407 15.5988 13.8033 16.7271 11.6739 16.7271C9.1632 16.7271 7.13949 14.6174 7.13949 11.9991C7.13949 9.38169 9.1632 7.27199 11.6739 7.27199C12.7554 7.27199 13.7329 7.67226 14.4999 8.32684L16.7332 5.99955C15.3726 4.76293 13.6281 4 11.6739 4C7.41866 4 4 7.56302 4 12C4 16.437 7.4178 20 11.6739 20C15.5109 20 19 17.0907 19 12C19 11.5272 18.9304 11.0177 18.8265 10.5449Z" fill="white"/>
</svg>
