<svg width="18" height="18" viewBox="0 0 18 18" fill="none" xmlns="http://www.w3.org/2000/svg">
<g id="Iconly/Bold/Heart" opacity="0.5">
<g id="Heart">
<path id="Heart_2" fill-rule="evenodd" clip-rule="evenodd" d="M11.8873 1.87561C12.3605 1.87561 12.833 1.94236 13.2823 2.09311C16.0505 2.99311 17.048 6.03061 16.2148 8.68561C15.7423 10.0424 14.9698 11.2806 13.958 12.2924C12.5098 13.6949 10.9205 14.9399 9.20977 16.0124L9.02227 16.1256L8.82727 16.0049C7.11052 14.9399 5.51227 13.6949 4.05052 12.2849C3.04552 11.2731 2.27227 10.0424 1.79227 8.68561C0.944768 6.03061 1.94227 2.99311 4.74052 2.07736C4.95802 2.00236 5.18227 1.94986 5.40727 1.92061H5.49727C5.70802 1.88986 5.91727 1.87561 6.12727 1.87561H6.20977C6.68227 1.88986 7.13977 1.97236 7.58302 2.12311H7.62727C7.65727 2.13736 7.67977 2.15311 7.69477 2.16736C7.86052 2.22061 8.01727 2.28061 8.16727 2.36311L8.45227 2.49061C8.52114 2.52734 8.59843 2.58346 8.66524 2.63196C8.70757 2.66269 8.74568 2.69036 8.77477 2.70811C8.78701 2.71533 8.79945 2.72259 8.81199 2.72991C8.8763 2.76745 8.94328 2.80655 8.99977 2.84986C9.83302 2.21311 10.8448 1.86811 11.8873 1.87561ZM13.8823 7.27561C14.1898 7.26736 14.4523 7.02061 14.4748 6.70486V6.61561C14.4973 5.56486 13.8605 4.61311 12.8923 4.24561C12.5848 4.13986 12.2473 4.30561 12.1348 4.62061C12.0298 4.93561 12.1948 5.28061 12.5098 5.39236C12.9905 5.57236 13.3123 6.04561 13.3123 6.56986V6.59311C13.298 6.76486 13.3498 6.93061 13.4548 7.05811C13.5598 7.18561 13.7173 7.25986 13.8823 7.27561Z" fill="white"/>
</g>
</g>
</svg>
