<svg width="54" height="54" viewBox="0 0 54 54" fill="none" xmlns="http://www.w3.org/2000/svg">
<path fill-rule="evenodd" clip-rule="evenodd" d="M15.4431 53.6667H38.5541C47.5949 53.6667 53.6666 47.3251 53.6666 37.8888V16.1113C53.6666 6.67501 47.5949 0.333374 38.5568 0.333374H15.4431C6.40497 0.333374 0.333252 6.67501 0.333252 16.1113V37.8888C0.333252 47.3251 6.40497 53.6667 15.4431 53.6667ZM17.6635 24.3334C13.9872 24.3334 10.9999 21.3421 10.9999 17.6667C10.9999 13.9913 13.9872 11 17.6635 11C21.3372 11 24.3272 13.9913 24.3272 17.6667C24.3272 21.3421 21.3372 24.3334 17.6635 24.3334ZM47.8554 34.8239C48.7484 37.1136 48.2845 39.8655 47.3298 42.1332C46.1982 44.8301 44.0316 46.8721 41.3017 47.7637C40.0897 48.16 38.8186 48.3334 37.5503 48.3334H15.0763C12.8399 48.3334 10.8609 47.7967 9.2386 46.7978C8.22229 46.1703 8.04263 44.7228 8.79614 43.7844C10.0565 42.2157 11.3007 40.6416 12.5557 39.0537C14.9476 36.0155 16.5592 35.1349 18.3505 35.9082C19.0772 36.2274 19.8065 36.7063 20.5574 37.2126C22.5578 38.5721 25.3386 40.4407 29.0015 38.4125C31.5082 37.0086 32.9621 34.6004 34.2281 32.5033L34.2493 32.4682C34.339 32.3211 34.4279 32.174 34.5166 32.0273L34.5166 32.0272C34.9421 31.3232 35.3619 30.6286 35.8368 29.9887C36.4321 29.1879 38.639 26.6836 41.4975 28.4668C43.3183 29.5897 44.8494 31.1087 46.4878 32.7352C47.1126 33.3571 47.5578 34.0644 47.8554 34.8239Z" fill="#9FA5C0"/>
</svg>
